<?xml version="1.0" encoding="UTF-8"?>
<svg id="Layer_2" data-name="Layer 2" xmlns="http://www.w3.org/2000/svg" viewBox="0 0 380.52 67.88">
  <defs>
    <style>
      .cls-1 {
        fill: #fff;
      }
    </style>
  </defs>
  <g id="GTS">
    <g id="Outlined">
      <g>
        <path class="cls-1" d="M67.8,28.21h-7.61s-.01,0-.01.01v14.8c0,.16-.13.28-.28.28h-3.67c-.16,0-.28-.13-.28-.28v-14.8s0-.01-.01-.01h-7.59c-.16,0-.28-.13-.28-.28v-3.32c0-.16.13-.28.28-.28h19.46c.16,0,.28.13.28.28v3.32c0,.16-.13.28-.28.28ZM121.85,24.33h-3.67c-.16,0-.28.13-.28.28v18.42c0,.16.13.28.28.28h3.67c.16,0,.28-.13.28-.28v-18.42c0-.16-.13-.28-.28-.28ZM151.55,42.85c.08.07.11.19.07.29-.04.1-.14.17-.25.17h-5.66c-.06,0-.12-.02-.17-.06l-6.22-5.38c-.06-.05-.09-.12-.09-.2s.03-.15.09-.2l2.83-2.45c.1-.09.24-.09.34,0l9.05,7.83ZM142.16,32.62s.11.06.17.06.12-.02.17-.06l9.05-7.83c.08-.07.11-.19.07-.29-.04-.1-.14-.17-.25-.17h-5.66c-.06,0-.12.02-.17.06l-6.22,5.38c-.06.05-.09.12-.09.2s.03.15.09.2l2.83,2.45ZM140.97,33.82c0-.08-.03-.15-.09-.2l-10.67-9.23s-.11-.06-.17-.06h-5.66c-.11,0-.21.07-.25.17-.04.1,0,.22.07.29l10.43,9.02s0,.01,0,.02l-10.43,9.02c-.08.07-.11.19-.07.29.04.1.14.17.25.17h5.66c.06,0,.12-.02.17-.06l10.67-9.23c.06-.05.09-.12.09-.2ZM4.24,30.5s.01-.02.02,0c.56.5,13.26,11.87,13.87,12.36.54.42,1.17.69,1.98.57,1.05-.13,2.21-1.03,2.21-2.54v-16.26c0-.16-.13-.28-.28-.28h-3.67c-.16,0-.28.13-.28.28v12.52s-.01.02-.02,0c-.56-.5-13.26-11.87-13.87-12.36-.54-.42-1.17-.69-1.98-.57-1.05.13-2.21,1.03-2.21,2.54v16.27c0,.16.13.28.28.28h3.67c.16,0,.28-.13.28-.28v-12.53ZM97.53,30.5s.01-.02.02,0c.56.5,13.26,11.87,13.87,12.36.54.42,1.17.69,1.98.57,1.05-.13,2.21-1.03,2.21-2.54v-16.26c0-.16-.13-.28-.28-.28h-3.67c-.16,0-.28.13-.28.28v12.52s-.01.02-.02,0c-.56-.5-13.26-11.87-13.87-12.36-.54-.42-1.17-.69-1.98-.57-1.05.13-2.21,1.03-2.21,2.54v16.27c0,.16.13.28.28.28h3.67c.16,0,.28-.13.28-.28v-12.53ZM36.41,43.69c2.29,0,4.84-.13,6.41-1.06,2.09-1.23,3.1-2.94,3.1-5.22v-12.8c0-.16-.13-.28-.28-.28h-3.71c-.16,0-.28.13-.28.28v12.55c-.04,2.5-3.13,2.52-5.36,2.52h-2.03c-2.23,0-5.33-.02-5.36-2.52v-12.55c0-.16-.13-.28-.29-.28h-3.71c-.16,0-.28.13-.28.28v12.8c0,2.28,1.01,3.99,3.1,5.22,1.57.92,4.12,1.05,6.41,1.06h2.3ZM91.54,42.88c.06.08.07.19.02.28-.05.09-.14.15-.24.15h-4.54c-.09,0-.18-.04-.23-.12l-2.65-3.78s0,0,0,0h-13.61s0,0,0,0l-2.66,3.79c-.05.07-.13.11-.22.11h-4.54c-.1,0-.19-.06-.24-.15-.05-.09-.04-.2.02-.28,0,0,11.54-16.47,12.25-17.46s1.43-1.24,2.2-1.24c.85,0,1.51.32,2.14,1.16l12.3,17.53ZM81.14,35.5l-4.04-5.72s-.01,0-.02,0l-4.04,5.72s0,.02,0,.02h8.08s.02-.01,0-.02Z"/>
        <polygon class="cls-1" points="177.29 67.88 176.44 67.88 176.44 44.13 187.39 33.94 176.44 23.75 176.44 0 177.29 0 177.29 23.38 188.64 33.94 177.29 44.5 177.29 67.88"/>
        <g>
          <path class="cls-1" d="M221.65,33.63h3.4v7.7c-2.02,1.63-4.83,2.46-7.56,2.46-5.99,0-10.41-4.17-10.41-9.94s4.42-9.94,10.46-9.94c3.23,0,5.93,1.08,7.76,3.15l-2.26,2.21c-1.52-1.52-3.26-2.21-5.33-2.21-4.11,0-7.01,2.79-7.01,6.79s2.9,6.79,6.98,6.79c1.38,0,2.73-.28,3.97-.99v-6.02Z"/>
          <path class="cls-1" d="M234.9,27.22h-6.4v-3.04h16.4v3.04h-6.4v16.29h-3.59v-16.29Z"/>
          <path class="cls-1" d="M246.99,41.47l1.24-2.79c1.55,1.24,4,2.12,6.38,2.12,3.01,0,4.28-1.08,4.28-2.51,0-4.17-11.48-1.44-11.48-8.61,0-3.12,2.48-5.77,7.78-5.77,2.32,0,4.75.61,6.43,1.71l-1.13,2.79c-1.74-1.02-3.64-1.52-5.33-1.52-2.98,0-4.2,1.16-4.2,2.62,0,4.11,11.46,1.44,11.46,8.53,0,3.09-2.51,5.74-7.81,5.74-3.01,0-6.02-.94-7.62-2.32Z"/>
          <path class="cls-1" d="M275.09,35.84c0-1.74,1.35-2.98,2.95-2.98s2.98,1.24,2.98,2.98-1.38,3.01-2.98,3.01-2.95-1.24-2.95-3.01Z"/>
          <path class="cls-1" d="M309.81,40.5v3.01h-14.49v-19.32h14.11v3.01h-10.52v5.02h9.33v2.95h-9.33v5.33h10.9Z"/>
          <path class="cls-1" d="M332.77,43.51l-.03-12.81-6.35,10.6h-1.6l-6.35-10.43v12.64h-3.42v-19.32h2.95l7.67,12.81,7.54-12.81h2.95l.03,19.32h-3.39Z"/>
          <path class="cls-1" d="M357.09,40.5v3.01h-14.49v-19.32h14.11v3.01h-10.52v5.02h9.33v2.95h-9.33v5.33h10.9Z"/>
          <path class="cls-1" d="M374.84,39.04h-9.66l-1.91,4.47h-3.7l8.69-19.32h3.53l8.72,19.32h-3.75l-1.93-4.47ZM373.65,36.22l-3.64-8.45-3.62,8.45h7.26Z"/>
        </g>
      </g>
    </g>
  </g>
</svg>